#!OML:ASF Y:\EmotionMaleHayes\Project 1\Capture day 1\Session 1\Male1.ASF
:FULLY-SPECIFIED
:DEGREES
203
root -30.4792 17.0469 1.78368 69.3945 85.7619 70.687
lowerback 0.77618 1.16686 -6.28345
upperback 0.987871 1.56409 -1.12478
thorax 0.447704 0.759416 2.35397
lowerneck -29.2329 1.70969 4.50679
upperneck 29.9499 0.626419 -0.138258
head 15.4544 0.881959 -0.654195
rclavicle 3.64024e-015 0
rhumerus 40.5366 14.9988 -45.9963
rradius 36.316
rwrist 5.38344
rhand -0.217938 -21.8245
rfingers 7.12502
rthumb 25.3816 -50.1551
lclavicle 3.64024e-015 0
lhumerus 39.8719 -15.9329 41.3181
lradius 36.7716
lwrist -1.87689
lhand 4.09236 -26.4617
lfingers 7.12502
lthumb 29.5039 1.21422
rfemur 10.2171 -1.78774 10.5045
rtibia 1.92933
rfoot -16.0138 -3.23633
rtoes 5.81727
lfemur 11.8514 -1.70651 -20.4422
ltibia 0.159116
lfoot -13.6395 13.4985
ltoes -15.7209
204
root -30.4796 17.0463 1.78466 70.1138 85.6861 71.4258
lowerback 0.780783 1.16521 -6.39815
upperback 1.01301 1.56337 -1.14553
thorax 0.468981 0.757727 2.39676
lowerneck -29.2271 1.67395 4.4701
upperneck 29.8945 0.563206 -0.0638886
head 15.4254 0.86133 -0.630099
rclavicle 1.3977e-014 8.54774e-015
rhumerus 40.5693 14.9454 -45.9945
rradius 36.2877
rwrist 5.40248
rhand -0.410345 -21.8489
rfingers 7.12502
rthumb 25.1973 -50.2056
lclavicle 1.3977e-014 8.54774e-015
lhumerus 39.9023 -15.9081 41.3109
lradius 36.8305
lwrist -1.78131
lhand 4.20849 -26.3782
lfingers 7.12502
lthumb 29.6147 1.27814
rfemur 10.2436 -1.81061 10.3803
rtibia 1.97874
rfoot -16.0431 -3.17395
rtoes 6.60592
lfemur 11.7454 -1.40578 -20.4276
ltibia 0.388466
lfoot -13.5328 13.2083
ltoes -16.6957
205
root -30.4807 17.0471 1.78593 70.643 85.7544 71.9075
lowerback 0.87724 1.17111 -6.30217
upperback 0.912956 1.55887 -1.17808
thorax 0.315199 0.762379 2.30628
lowerneck -29.1873 1.63235 4.45211
upperneck 29.9414 0.476658 0.0449629
head 15.4365 0.842578 -0.598993
rclavicle -3.53775e-015 0
rhumerus 40.4246 14.9012 -46.1557
rradius 36.2306
rwrist 5.47814
rhand -0.318966 -21.8365
rfingers 7.12502
rthumb 25.2848 -50.1808
lclavicle -3.53775e-015 0
lhumerus 39.9022 -16.1043 41.1885
lradius 36.9341
lwrist -1.49502
lhand 4.16217 -26.3232
lfingers 7.12502
lthumb 29.5705 1.34099
rfemur 10.212 -1.78632 10.4529
rtibia 1.91154
rfoot -15.9557 -3.24521
rtoes 7.66663
lfemur 11.6543 -1.4687 -20.3618
ltibia 0.445971
lfoot -13.5914 13.235
ltoes -16.4083
206
root -30.4794 17.0486 1.78666 71.4541 85.6859 72.6506
lowerback 0.679944 1.15593 -6.43156
upperback 0.987844 1.55841 -1.17793
thorax 0.50017 0.754907 2.38403
lowerneck -29.3974 1.67817 4.57931
upperneck 30.0043 0.507153 -0.0690371
head 15.5124 0.852905 -0.661702
rclavicle 6.01013e-015 -9.14409e-015
rhumerus 40.5678 14.7549 -46.1662
rradius 36.1991
rwrist 5.36809
rhand -0.17651 -21.9283
rfingers 7.12502
rthumb 25.4213 -50.2533
lclavicle 6.01013e-015 -9.14409e-015
lhumerus 39.9926 -16.024 41.1825
lradius 36.9398
lwrist -1.40038
lhand 3.7554 -26.4187
lfingers 7.12502
lthumb 29.1821 1.31355
rfemur 10.1618 -1.80246 10.3565
rtibia 1.83791
rfoot -15.8366 -3.34316
rtoes 7.86504
lfemur 11.4904 -1.05049 -20.2965
ltibia 0.60222
lfoot -13.6206 12.7709
ltoes -15.3294
207
root -30.4791 17.0496 1.78719 72.3778 85.4435 73.5246
lowerback 0.889467 1.18172 -6.59217
upperback 0.807777 1.56865 -1.32356
thorax 0.196042 0.77314 2.31622
lowerneck -29.4444 1.68246 4.67581
upperneck 30.1844 0.463598 -0.0557756
head 15.6064 0.854732 -0.680634
rclavicle -4.23039e-015 -1.2921e-014
rhumerus 40.3269 14.798 -46.3257
rradius 36.2347
rwrist 5.24006
rhand -0.0827228 -21.9852
rfingers 7.12502
rthumb 25.5111 -50.2973
lclavicle -4.23039e-015 -1.2921e-014
lhumerus 39.8839 -16.2814 41.0153
lradius 37.0182
lwrist -1.31558
lhand 3.41528 -26.5281
lfingers 7.12502
lthumb 28.8573 1.26012
rfemur 10.101 -1.78152 10.0725
rtibia 1.85669
rfoot -15.9206 -3.3625
rtoes 6.83889
lfemur 11.332 -0.564575 -20.4373
ltibia 0.785098
lfoot -13.4678 12.3073
ltoes -15.8907
208
root -30.4804 17.0501 1.78742 72.4341 85.3577 73.5535
lowerback 0.714895 1.15824 -6.77747
upperback 0.900211 1.55548 -1.24823
thorax 0.384077 0.757785 2.50234
lowerneck -29.3879 1.69302 4.56087
upperneck 30.0003 0.537492 -0.0660198
head 15.5092 0.863671 -0.65085
rclavicle -4.9075e-015 1.03368e-014
rhumerus 40.5222 14.849 -46.0467
rradius 36.2583
rwrist 5.24666
rhand -0.129262 -21.8225
rfingers 7.12502
rthumb 25.4666 -50.141
lclavicle -4.9075e-015 1.03368e-014
lhumerus 39.9024 -16.1036 41.0582
lradius 37.0423
lwrist -1.19644
lhand 3.42093 -26.5496
lfingers 7.12502
lthumb 28.8627 1.23771
rfemur 10.0372 -1.80373 9.95432
rtibia 1.91054
rfoot -15.993 -3.22055
rtoes 6.23271
lfemur 11.3515 -0.899478 -20.6756
ltibia 0.683703
lfoot -13.4304 12.6782
ltoes -16.1029
209
root -30.4801 17.0503 1.78691 71.6845 85.4573 72.8249
lowerback 0.832242 1.17756 -6.62252
upperback 0.815895 1.56622 -1.22677
thorax 0.233235 0.769578 2.4342
lowerneck -29.1859 1.66287 4.5256
upperneck 29.9506 0.516413 -0.0382151
head 15.4421 0.855119 -0.638191
rclavicle -2.98798e-015 2.3059e-014
rhumerus 40.369 15.0102 -45.9255
rradius 36.2985
rwrist 5.26359
rhand -0.316496 -21.7367
rfingers 7.12502
rthumb 25.2872 -50.0806
lclavicle -2.98798e-015 2.3059e-014
lhumerus 39.8362 -16.2569 40.9433
lradius 37.1594
lwrist -0.955925
lhand 3.59982 -26.453
lfingers 7.12502
lthumb 29.0336 1.30498
rfemur 10.0213 -2.02546 9.99861
rtibia 2.03648
rfoot -15.9205 -3.09542
rtoes 6.17413
lfemur 11.473 -1.30005 -20.6887
ltibia 0.505786
lfoot -13.5474 13.1072
ltoes -15.9305
210
root -30.4804 17.0497 1.78751 70.623 85.6044 71.7838
lowerback 0.895388 1.20413 -6.42801
upperback 0.794892 1.59504 -1.19549
thorax 0.177423 0.786198 2.35596
lowerneck -29.1988 1.66126 4.54666
upperneck 29.9949 0.507883 -0.0479115
head 15.4654 0.854043 -0.647439
rclavicle -5.65294e-015 1.5704e-014
rhumerus 40.299 15.1089 -45.7392
rradius 36.3751
rwrist 5.0676
rhand -0.357365 -21.8546
rfingers 7.12502
rthumb 25.248 -50.2041
lclavicle -5.65294e-015 1.5704e-014
lhumerus 39.8403 -16.2082 40.9433
lradius 37.1433
lwrist -1.14805
lhand 3.76923 -26.7662
lfingers 7.12502
lthumb 29.1954 0.963797
rfemur 10.0164 -2.0866 10.1984
rtibia 2.12612
rfoot -15.8885 -3.18013
rtoes 6.09769
lfemur 11.4513 -0.926128 -20.3324
ltibia 0.598912
lfoot -13.5633 12.7518
ltoes -16.0596
211
root -30.4812 17.0493 1.78875 69.7598 85.6938 70.9428
lowerback 0.893833 1.21186 -6.33842
upperback 0.827345 1.60661 -1.15403
thorax 0.211805 0.790251 2.34906
lowerneck -29.365 1.7098 4.67758
upperneck 30.1088 0.558768 -0.196571
head 15.5564 0.869816 -0.72126
rclavicle 8.94531e-015 1.45113e-014
rhumerus 40.3659 15.1412 -45.5977
rradius 36.4251
rwrist 4.7482
rhand -0.224254 -22.0107
rfingers 7.12502
rthumb 25.3756 -50.3421
lclavicle 8.94531e-015 1.45113e-014
lhumerus 39.8437 -15.8869 41.2692
lradius 36.9096
lwrist -1.86392
lhand 3.87333 -27.4706
lfingers 7.12502
lthumb 29.2948 0.242091
rfemur 10.0329 -1.92879 10.3927
rtibia 2.05769
rfoot -15.8643 -3.27502
rtoes 6.42119
lfemur 11.4019 -0.51585 -20.0429
ltibia 0.74624
lfoot -13.4295 12.3888
ltoes -17.1862
